<svg xmlns="http://www.w3.org/2000/svg" viewBox="20 0 90 120" width="100%" height="100%">
  <defs>
    <mask id="a-mask">
      <rect x="-20" y="-20" width="150" height="150" fill="white" />
      <polygon points="50,2 98,112 2,112" fill="black" />
    </mask>
  </defs>

  <g transform="translate(15, 10)">
    <!-- Circles masked by the A -->
    <g mask="url(#a-mask)">
      <path d="M 50,15 A 32,32 0 0 1 50,79" stroke="#031E38" stroke-width="10" stroke-linecap="round" fill="none" />
      <path d="M 50,15 A 32,32 0 0 0 50,79" stroke="#416788" stroke-width="10" stroke-linecap="round" fill="none" />
    </g>

    <!-- Leg Polygons -->
    <polygon points="50,10 50,44 43.3,59.3 24.2,68.9" fill="#031E38" />
    <polygon points="22.0,74.0 15,90 30,90 75.1,67.4 67.9,51.0" fill="#031E38" />
    <polygon points="50,10 66.5,47.7 54.3,53.9 50,44" fill="#416788" />
    <polygon points="64.3,76.9 76.6,70.7 85,90 70,90" fill="#416788" />

  </g>
</svg>
