<svg xmlns="http://www.w3.org/2000/svg" viewBox="10 -5 90 120" width="100%" height="100%">
  <g transform="translate(10, 10)">
    <!-- Shield Logo Graphic -->
    <g transform="scale(0.9) translate(0, 0)">
      <!-- Left Border -->
      <path d="M 46 22 L 14 8 L 14 40 C 14 75, 30 92, 50 100 L 50 88 C 35 80, 26 68, 26 42 L 26 18 L 46 26 Z" fill="#9C1133"/>
      
      <!-- Right Border -->
      <path d="M 54 22 L 86 8 L 86 40 C 86 75, 70 92, 50 100 L 50 88 C 65 80, 74 68, 74 42 L 74 18 L 54 26 Z" fill="#F45A34"/>

      <!-- Center Arrow Shaft -->
      <polygon points="50,2 43,12 50,12" fill="#9C1133"/>
      <polygon points="50,2 57,12 50,12" fill="#D3212D"/>
      
      <rect x="45" y="12" width="5" height="76" fill="#9C1133"/>
      <rect x="50" y="12" width="5" height="76" fill="#D3212D"/>

      <!-- Left Inner Stripes -->
      <polygon points="26,69 43,52 43,62 26,79" fill="#E6433F" />
      <polygon points="26,54 43,37 43,47 26,64" fill="#D3212D" />
      <polygon points="26,39 43,22 43,32 26,49" fill="#9C1133" />
      
      <!-- Right Inner Stripes -->
      <polygon points="74,69 57,52 57,62 74,79" fill="#F89254" />
      <polygon points="74,54 57,37 57,47 74,64" fill="#F67A44" />
      <polygon points="74,39 57,22 57,32 74,49" fill="#F15132" />
    </g>
  </g>
</svg>
